<?xml version="1.0" standalone="no"?>
<!DOCTYPE svg PUBLIC "-//W3C//DTD SVG 20010904//EN"
 "http://www.w3.org/TR/2001/REC-SVG-20010904/DTD/svg10.dtd">
<svg version="1.0" xmlns="http://www.w3.org/2000/svg"
 width="6300.000000pt" height="4500.000000pt" viewBox="0 0 6300.000000 4500.000000"
 preserveAspectRatio="xMidYMid meet">
<metadata>
Created by potrace 1.16, written by Peter Selinger 2001-2019
</metadata>
<g transform="translate(0.000000,4500.000000) scale(0.100000,-0.100000)"
fill="#000000" stroke="none">
<path d="M38133 33321 c-728 -729 -1323 -1333 -1323 -1341 0 -20 7630 -7650
7650 -7650 24 0 2673 2654 2669 2674 -2 9 -1721 1733 -3819 3831 -2734 2734
-3821 3815 -3835 3813 -12 -1 -545 -527 -1342 -1327z"/>
<path d="M56790 32326 c-6 -8 -21 -16 -33 -18 -14 -2 -23 -11 -25 -25 -2 -12
-10 -27 -18 -33 -19 -17 -19 -104 1 -120 27 -22 5 -30 -89 -30 -69 0 -97 -4
-106 -14 -6 -8 -21 -16 -33 -18 -14 -2 -23 -11 -25 -25 -2 -12 -10 -27 -18
-33 -8 -8 -14 -31 -14 -59 0 -40 5 -52 30 -76 35 -34 37 -68 3 -73 -12 -2 -27
-10 -33 -18 -16 -18 -44 -18 -60 1 -8 9 -30 15 -60 15 -31 0 -52 5 -60 15 -12
14 -18 11 -52 -22 -36 -35 -38 -40 -38 -99 0 -42 5 -65 15 -74 23 -19 19 -73
-8 -98 -27 -26 -79 -29 -97 -7 -7 8 -20 15 -30 15 -10 0 -23 7 -30 15 -7 8
-20 15 -30 15 -10 0 -23 -7 -30 -15 -7 -8 -20 -15 -29 -15 -9 0 -67 -51 -129
-113 l-112 -112 0 -105 0 -106 -53 -52 c-29 -29 -59 -52 -67 -52 -9 0 -109
-94 -225 -210 -115 -115 -218 -210 -229 -212 -13 -2 -22 -12 -24 -24 -4 -26
-39 -61 -67 -66 -11 -2 -21 -12 -23 -23 -5 -26 -71 -95 -92 -95 -8 0 -49 -34
-90 -75 -41 -41 -81 -75 -90 -75 -8 0 -103 -88 -210 -195 -107 -107 -202 -195
-210 -195 -8 0 -110 -94 -225 -210 -115 -115 -217 -210 -225 -210 -8 0 -103
-88 -210 -195 -107 -107 -202 -195 -210 -195 -8 0 -103 -88 -210 -195 -106
-107 -203 -195 -214 -197 -12 -2 -22 -12 -24 -23 -5 -26 -131 -155 -152 -155
-8 0 -62 -47 -120 -105 -58 -58 -112 -105 -120 -105 -8 0 -103 -88 -210 -195
-107 -107 -202 -195 -210 -195 -20 0 -90 -71 -90 -91 0 -19 -41 -59 -61 -59
-8 0 -68 -54 -134 -120 -66 -66 -127 -120 -135 -120 -8 0 -103 -88 -210 -195
-107 -107 -202 -195 -210 -195 -8 0 -103 -88 -210 -195 -107 -107 -202 -195
-211 -195 -19 0 -59 -41 -59 -61 0 -19 -131 -149 -150 -149 -9 0 -56 -40 -105
-90 -49 -49 -96 -90 -105 -90 -8 0 -103 -88 -210 -195 -107 -107 -202 -195
-210 -195 -8 0 -103 -88 -210 -195 -107 -107 -202 -195 -210 -195 -8 0 -103
-88 -210 -195 -107 -107 -202 -195 -210 -195 -8 0 -89 -74 -180 -165 -91 -91
-172 -165 -181 -165 -9 0 -22 7 -29 15 -7 8 -20 15 -30 15 -10 0 -23 7 -30 15
-8 9 -30 15 -60 15 -30 0 -52 -6 -60 -15 -7 -8 -20 -15 -29 -15 -9 0 -53 -37
-99 -83 -79 -79 -82 -84 -82 -128 0 -29 6 -51 15 -59 10 -9 15 -32 15 -74 0
-58 -2 -64 -38 -99 -21 -20 -44 -37 -53 -37 -8 0 -102 -88 -209 -195 -107
-107 -202 -195 -210 -195 -9 0 -56 -40 -105 -90 -49 -49 -96 -90 -105 -90 -8
0 -69 -54 -135 -120 -66 -66 -127 -120 -135 -120 -20 0 -150 -131 -150 -150 0
-20 -191 -210 -211 -210 -8 0 -35 -20 -59 -45 -24 -25 -51 -45 -60 -45 -9 0
-36 -20 -60 -45 -24 -25 -51 -45 -60 -45 -8 0 -96 -81 -195 -180 -99 -99 -187
-180 -195 -180 -8 0 -83 -67 -165 -150 -82 -82 -157 -150 -165 -150 -9 0 -36
-20 -60 -45 -24 -25 -51 -45 -60 -45 -8 0 -56 -40 -105 -90 -49 -49 -96 -90
-105 -90 -8 0 -103 -88 -210 -195 -107 -107 -202 -195 -210 -195 -8 0 -103
-88 -210 -195 -107 -107 -202 -195 -211 -195 -9 0 -22 -7 -29 -15 -7 -8 -27
-15 -45 -15 -18 0 -38 -7 -45 -15 -7 -8 -20 -15 -29 -15 -9 0 -70 -54 -136
-120 -66 -66 -127 -120 -135 -120 -8 0 -110 -94 -225 -210 -115 -115 -217
-210 -225 -210 -9 0 -36 -20 -60 -45 -50 -51 -80 -56 -90 -15 -4 15 -14 26
-27 28 -12 2 -27 10 -33 18 -7 8 -20 14 -30 14 -10 0 -23 7 -30 15 -7 8 -20
15 -29 15 -21 0 -91 70 -91 91 0 19 401 419 420 419 8 0 103 88 210 195 107
107 202 195 211 195 8 0 28 14 44 30 16 17 36 30 45 30 9 0 36 20 60 45 24 25
52 45 61 45 9 0 22 7 29 15 7 8 27 15 45 15 18 0 38 7 45 15 7 8 20 15 30 15
10 0 23 7 30 15 7 8 20 15 30 15 10 0 23 7 30 15 7 8 20 15 30 15 10 0 23 7
30 15 7 8 20 15 29 15 10 0 30 14 46 30 16 17 36 30 46 30 9 0 22 7 29 15 7 8
20 15 30 15 10 0 23 7 30 15 7 8 20 15 30 15 10 0 23 7 30 15 7 8 20 15 30 15
10 0 23 7 30 15 7 8 20 15 30 15 10 0 23 7 30 15 7 8 20 15 30 15 10 0 23 7
30 15 7 8 20 15 29 15 9 0 37 20 61 45 24 25 51 45 60 45 8 0 103 88 210 195
107 107 202 195 210 195 20 0 450 431 450 451 0 9 -7 22 -15 29 -14 11 -14 15
-1 29 14 15 2 31 -134 166 -82 82 -150 158 -152 169 -2 12 -12 22 -23 24 -26
5 -65 41 -65 61 0 9 -54 70 -120 136 -65 65 -120 128 -122 139 -2 13 -12 22
-24 24 -26 4 -61 39 -66 67 -2 10 -14 22 -28 25 -15 4 -26 15 -30 30 -5 23
-11 25 -70 28 l-63 3 -68 -67 c-38 -37 -69 -77 -71 -88 -2 -12 -12 -22 -24
-24 -11 -2 -67 -50 -124 -107 -58 -58 -112 -105 -120 -105 -8 0 -103 -88 -210
-195 -107 -107 -202 -195 -211 -195 -19 0 -59 -41 -59 -61 0 -9 -13 -28 -30
-44 -16 -16 -30 -36 -30 -45 0 -9 -13 -29 -30 -45 -16 -16 -30 -36 -30 -46 0
-9 -7 -22 -15 -29 -8 -7 -15 -20 -15 -29 0 -10 -13 -30 -30 -46 -16 -16 -30
-36 -30 -46 0 -9 -7 -22 -15 -29 -8 -7 -15 -20 -15 -29 0 -10 -13 -30 -30 -46
-16 -16 -30 -36 -30 -45 0 -9 -13 -29 -30 -45 -16 -16 -30 -36 -30 -45 0 -9
-13 -29 -30 -45 -16 -16 -30 -36 -30 -46 0 -9 -7 -22 -15 -29 -8 -7 -15 -20
-15 -29 0 -10 -13 -30 -30 -46 -16 -16 -30 -36 -30 -46 0 -9 -7 -22 -15 -29
-8 -7 -15 -20 -15 -29 0 -9 -20 -37 -45 -61 -25 -24 -45 -51 -45 -60 0 -20
-161 -180 -181 -180 -19 0 -59 -41 -59 -61 0 -19 -221 -239 -240 -239 -8 0
-96 -81 -195 -180 -99 -99 -187 -180 -196 -180 -9 0 -22 -7 -29 -15 -12 -14
-15 -14 -30 0 -21 19 -44 19 -60 0 -7 -8 -20 -15 -29 -15 -9 0 -53 -37 -98
-82 -78 -79 -82 -85 -85 -133 -4 -73 -27 -72 -103 5 -33 33 -67 60 -76 60 -9
0 -22 7 -29 15 -12 14 -17 12 -45 -15 -17 -16 -38 -30 -46 -30 -8 0 -35 -20
-59 -45 -24 -25 -51 -45 -60 -45 -20 0 -90 -71 -90 -91 0 -8 -13 -28 -30 -44
-25 -24 -30 -37 -30 -75 0 -43 4 -50 60 -105 33 -33 60 -66 60 -75 0 -20 -490
-510 -510 -510 -9 0 -42 -27 -75 -60 -33 -33 -67 -60 -75 -60 -9 0 -29 -13
-45 -30 -16 -16 -36 -30 -46 -30 -9 0 -22 -7 -29 -15 -7 -8 -27 -15 -45 -15
-18 0 -38 -7 -45 -15 -7 -8 -20 -15 -29 -15 -21 0 -91 -70 -91 -92 0 -8 -7
-21 -15 -28 -8 -7 -15 -34 -17 -63 -3 -45 -6 -52 -25 -55 -12 -2 -27 -10 -33
-18 -9 -9 -33 -14 -75 -14 -43 0 -66 -5 -75 -15 -7 -8 -20 -15 -30 -15 -10 0
-23 -7 -30 -15 -7 -8 -27 -15 -44 -15 -27 0 -47 -16 -136 -105 -58 -58 -112
-105 -120 -105 -8 0 -110 -94 -225 -210 -115 -115 -217 -210 -225 -210 -20 0
-270 -251 -270 -270 0 -21 -161 -180 -181 -180 -9 0 -22 -7 -29 -15 -7 -8 -20
-15 -29 -15 -9 0 -47 -30 -84 -68 -63 -64 -67 -70 -67 -114 0 -28 6 -50 15
-58 8 -7 15 -20 15 -29 0 -9 40 -57 90 -106 84 -83 88 -90 73 -107 -18 -20
-11 -25 42 -30 27 -3 31 -7 35 -43 4 -31 10 -41 26 -43 11 -2 74 -57 139 -122
66 -66 127 -120 136 -120 9 0 22 -7 29 -15 8 -9 30 -15 59 -15 44 0 50 3 114
68 37 37 67 74 67 82 0 20 161 180 181 180 8 0 41 27 74 60 33 33 67 60 75 60
9 0 29 14 45 30 16 17 36 30 45 30 20 0 120 100 120 120 0 21 281 300 301 300
9 0 22 7 29 15 7 8 20 15 29 15 9 0 50 34 91 75 41 41 82 75 90 75 9 0 39 -24
68 -53 55 -56 68 -101 37 -127 -8 -7 -15 -20 -15 -30 0 -10 -7 -23 -15 -30
-14 -12 -14 -15 0 -30 19 -21 19 -74 0 -90 -8 -7 -15 -20 -15 -29 0 -9 -20
-37 -45 -61 -34 -33 -45 -52 -45 -75 0 -23 -11 -42 -45 -75 -25 -24 -45 -52
-45 -61 0 -9 -7 -22 -15 -29 -8 -7 -15 -20 -15 -30 0 -10 -7 -23 -15 -30 -14
-12 -14 -15 0 -30 8 -9 15 -23 15 -31 0 -9 14 -28 30 -44 21 -20 30 -38 30
-61 0 -17 7 -37 15 -44 9 -8 15 -30 15 -60 0 -30 -6 -52 -15 -60 -8 -7 -15
-20 -15 -29 0 -10 -13 -30 -30 -46 -16 -16 -30 -36 -30 -46 0 -9 -7 -22 -15
-29 -8 -7 -15 -20 -15 -29 0 -10 -13 -30 -30 -46 -21 -20 -30 -38 -30 -60 0
-23 -11 -41 -45 -75 -25 -24 -45 -52 -45 -61 0 -9 -6 -22 -14 -29 -8 -6 -16
-28 -18 -48 -2 -29 -8 -37 -28 -42 -15 -4 -26 -14 -28 -27 -2 -11 -16 -33 -33
-48 -24 -24 -29 -37 -29 -75 0 -38 -5 -51 -30 -75 -21 -20 -30 -38 -30 -61 0
-17 -7 -37 -15 -44 -11 -9 -15 -33 -15 -90 0 -57 -4 -81 -15 -90 -20 -17 -20
-103 0 -120 14 -12 14 -15 0 -30 -19 -21 -19 -44 0 -60 9 -8 15 -30 15 -60 0
-30 6 -52 15 -60 10 -9 15 -32 15 -75 0 -43 5 -66 15 -75 9 -8 15 -30 15 -60
0 -30 6 -52 15 -60 9 -8 15 -30 15 -60 0 -30 6 -52 15 -60 12 -10 15 -37 15
-120 0 -83 3 -110 15 -120 19 -16 19 -44 0 -60 -14 -12 -14 -15 0 -30 14 -15
14 -18 0 -30 -8 -7 -15 -27 -15 -45 0 -18 -7 -38 -15 -45 -8 -7 -15 -27 -15
-45 0 -18 -7 -38 -15 -45 -8 -7 -15 -20 -15 -29 0 -21 -160 -181 -181 -181 -9
0 -22 -7 -29 -15 -16 -19 -44 -19 -60 0 -12 14 -17 12 -45 -15 -30 -29 -34
-30 -122 -30 -68 0 -94 4 -103 15 -7 8 -27 15 -45 15 -18 0 -38 7 -45 15 -12
14 -15 14 -30 0 -15 -14 -18 -14 -30 0 -7 8 -20 15 -29 15 -10 0 -30 13 -46
29 -15 17 -37 31 -49 33 -12 2 -22 12 -24 24 -2 12 -16 34 -33 49 -20 20 -29
38 -29 60 0 24 -12 43 -60 90 -48 47 -60 66 -60 90 0 22 -9 40 -30 60 -25 24
-30 37 -30 75 0 40 -5 51 -38 83 -41 40 -89 50 -112 22 -7 -8 -27 -15 -45 -15
-18 0 -38 -7 -45 -15 -7 -8 -20 -15 -30 -15 -10 0 -23 -7 -30 -15 -7 -8 -20
-15 -29 -15 -10 0 -30 -14 -46 -30 -20 -21 -38 -30 -61 -30 -17 0 -37 -7 -44
-15 -7 -8 -20 -15 -30 -15 -10 0 -23 -7 -30 -15 -7 -8 -20 -15 -30 -15 -10 0
-23 -7 -30 -15 -7 -8 -27 -15 -44 -15 -23 0 -41 -9 -61 -30 -16 -16 -36 -30
-45 -30 -9 0 -29 -13 -45 -30 -20 -21 -38 -30 -61 -30 -17 0 -37 -7 -44 -15
-7 -8 -20 -15 -30 -15 -10 0 -23 -7 -30 -15 -7 -8 -20 -15 -30 -15 -10 0 -23
-7 -30 -15 -7 -8 -20 -15 -30 -15 -10 0 -23 -7 -30 -15 -7 -8 -20 -15 -29 -15
-10 0 -30 -14 -46 -30 -16 -16 -36 -30 -45 -30 -9 0 -36 -20 -60 -45 -24 -25
-51 -45 -60 -45 -9 0 -36 -20 -60 -45 -24 -25 -51 -45 -60 -45 -26 0 -60 -43
-60 -76 0 -39 -36 -74 -77 -74 -17 0 -36 -7 -43 -15 -7 -8 -20 -15 -29 -15
-10 0 -30 -13 -46 -30 -16 -16 -36 -30 -45 -30 -8 0 -56 -40 -105 -90 -49 -49
-96 -90 -105 -90 -8 0 -69 -54 -135 -120 -66 -66 -127 -120 -135 -120 -20 0
-390 -371 -390 -391 0 -9 -7 -22 -15 -29 -11 -9 -15 -40 -17 -123 -3 -105 -4
-112 -24 -115 -11 -2 -40 -23 -64 -47 -25 -25 -51 -45 -60 -45 -8 0 -103 -88
-210 -195 -107 -107 -202 -195 -210 -195 -9 0 -36 -20 -60 -45 -24 -25 -51
-45 -60 -45 -9 0 -35 -20 -60 -45 -24 -24 -51 -45 -61 -47 -10 -2 -102 -86
-204 -187 l-185 -185 0 -97 c0 -77 3 -98 15 -103 8 -3 15 -14 15 -24 0 -10 14
-31 30 -47 17 -16 30 -36 30 -45 0 -21 38 -57 65 -62 11 -2 21 -12 23 -24 2
-11 77 -94 167 -184 91 -91 165 -172 165 -180 0 -8 74 -89 165 -180 90 -90
165 -173 167 -184 2 -12 12 -22 23 -24 26 -5 65 -41 65 -61 0 -9 74 -90 165
-181 90 -90 165 -173 167 -184 2 -12 13 -23 28 -26 14 -3 26 -14 28 -25 2 -11
43 -60 92 -110 49 -49 90 -99 92 -110 2 -11 12 -21 23 -23 27 -5 63 -40 67
-65 2 -13 13 -23 28 -27 20 -5 26 -13 28 -40 4 -38 36 -80 62 -80 9 0 29 -13
45 -30 24 -25 36 -30 77 -30 34 0 50 -5 54 -15 8 -20 60 -20 68 0 3 8 14 15
24 15 11 0 25 7 32 15 7 8 20 15 29 15 9 0 43 27 76 60 33 33 66 60 75 60 8 0
49 34 90 75 41 41 81 75 90 75 8 0 96 81 195 180 99 99 187 180 195 180 8 0
100 84 203 188 l187 187 0 90 0 90 -105 105 c-57 57 -105 113 -107 124 -2 12
-13 23 -28 26 -22 5 -25 12 -28 55 -2 28 -10 57 -18 66 -13 14 -13 18 1 29 8
7 15 27 15 45 0 18 7 38 15 45 8 7 15 20 15 29 0 20 160 181 180 181 8 0 103
88 210 195 107 107 202 195 210 195 9 0 42 27 75 60 33 33 66 60 75 60 9 0 36
20 60 45 24 25 51 45 60 45 8 0 69 54 135 120 66 66 127 120 136 120 9 0 22 7
29 15 7 8 20 15 29 15 9 0 37 20 61 45 24 25 52 45 61 45 9 0 22 7 29 15 7 8
20 15 30 15 10 0 23 7 30 15 7 8 20 15 30 15 10 0 23 7 30 15 7 8 20 15 30 15
10 0 23 7 30 15 7 8 20 15 29 15 10 0 30 14 46 30 20 21 38 30 61 30 17 0 37
7 44 15 7 8 20 15 30 15 10 0 23 7 30 15 7 8 27 15 45 15 18 0 38 7 45 15 7 8
20 15 30 15 10 0 23 7 30 15 7 8 20 15 30 15 10 0 23 7 30 15 7 8 27 15 45 15
18 0 38 7 45 15 7 8 20 15 30 15 10 0 23 7 30 15 7 8 20 15 30 15 10 0 23 7
30 15 8 9 30 15 60 15 30 0 52 6 60 15 7 8 20 15 30 15 10 0 23 7 30 15 7 8
27 15 45 15 18 0 38 7 45 15 7 8 27 15 45 15 18 0 38 7 45 15 7 8 20 15 30 15
10 0 23 7 30 15 7 8 20 15 30 15 10 0 23 7 30 15 9 10 32 15 74 15 56 0 65 3
91 30 16 17 36 30 46 30 9 0 22 7 29 15 7 8 27 15 45 15 18 0 38 7 45 15 7 8
27 15 45 15 18 0 38 7 45 15 7 8 20 15 29 15 9 0 37 20 61 45 24 25 51 45 60
45 20 0 90 71 90 91 0 19 131 149 150 149 9 0 56 41 105 90 49 50 96 90 105
90 8 0 73 57 143 128 108 108 127 132 127 158 0 18 7 37 15 44 14 12 14 15 0
30 -8 9 -15 23 -15 31 0 9 -13 28 -30 44 -16 16 -30 36 -30 45 0 8 -47 62
-105 120 -58 58 -105 112 -105 120 0 9 -34 49 -75 90 -41 41 -75 82 -75 90 0
9 -13 29 -30 45 -21 20 -30 38 -30 60 0 24 -12 43 -60 90 -56 55 -59 60 -43
77 17 19 19 17 -32 33 -8 2 -15 13 -15 23 0 10 -20 38 -45 62 -25 24 -45 52
-45 61 0 9 -7 22 -15 29 -11 9 -15 35 -15 105 0 70 4 96 15 105 8 7 15 20 15
29 0 9 24 40 53 69 52 51 54 52 114 52 42 0 64 -5 73 -15 7 -8 20 -15 30 -15
10 0 23 -7 30 -15 12 -14 15 -14 30 0 21 19 44 19 60 0 16 -19 44 -19 60 0 12
14 15 14 30 0 21 -19 74 -19 90 0 7 8 20 15 29 15 9 0 67 51 129 113 l113 113
-24 22 c-27 26 -50 28 -67 7 -7 -8 -20 -15 -29 -15 -10 0 -30 -13 -46 -30 -16
-16 -36 -30 -46 -30 -9 0 -22 -7 -29 -15 -10 -12 -37 -15 -120 -15 -83 0 -110
3 -120 15 -7 8 -20 15 -30 15 -10 0 -23 7 -30 15 -7 8 -20 15 -29 15 -21 0
-61 40 -61 60 0 8 -34 49 -76 91 -66 66 -73 77 -60 89 9 7 16 27 16 44 0 24
10 42 38 69 34 33 40 36 52 22 7 -8 20 -15 29 -15 9 0 57 -40 106 -90 49 -49
97 -90 105 -90 9 0 29 -13 45 -30 24 -25 37 -30 76 -30 29 0 51 -6 59 -15 9
-10 32 -15 74 -15 53 0 66 4 85 24 18 19 22 33 19 72 -3 49 -3 49 -40 52 -20
2 -42 10 -48 18 -7 8 -20 14 -30 14 -10 0 -23 7 -30 15 -7 8 -20 15 -29 15
-10 0 -30 14 -46 30 -16 17 -36 30 -45 30 -20 0 -60 41 -60 61 0 8 -27 41 -60
74 -58 58 -66 75 -32 75 22 0 152 130 152 151 0 19 41 59 61 59 9 0 28 14 44
30 16 17 36 30 45 30 8 0 56 41 105 90 49 50 97 90 105 90 9 0 36 20 60 45 46
47 69 55 90 30 7 -8 20 -15 30 -15 10 0 23 -7 30 -15 7 -8 20 -15 29 -15 30 0
91 -72 91 -107 0 -17 7 -36 15 -43 20 -17 20 -103 0 -120 -14 -12 -14 -15 0
-30 10 -11 15 -37 15 -77 0 -42 -5 -64 -15 -73 -14 -12 -14 -15 0 -30 19 -21
19 -44 0 -60 -21 -17 -19 -37 4 -50 30 -15 62 -12 99 10 31 19 32 22 32 84 0
45 4 67 15 76 14 12 14 15 0 30 -14 15 -14 19 -1 29 8 7 16 29 18 49 3 35 5
37 39 40 23 2 40 -2 49 -12 8 -10 29 -16 59 -16 42 0 51 4 91 45 48 49 95 60
121 29 11 -13 27 -1 126 98 62 62 113 120 113 129 0 20 39 56 65 61 11 2 21
12 23 24 2 11 50 67 107 124 58 58 105 112 105 120 0 8 41 56 90 105 50 49 90
96 90 105 0 8 54 69 120 135 66 66 120 127 120 135 0 9 20 35 45 60 24 24 45
53 47 64 2 12 12 22 23 24 27 5 65 41 65 62 0 9 20 36 45 60 25 24 45 51 45
60 0 21 38 57 65 62 11 2 21 12 23 24 2 12 16 34 33 49 16 16 29 36 29 45 0 8
27 42 60 75 l60 59 0 77 c0 56 4 80 15 89 8 7 15 27 15 45 0 18 7 38 15 45 8
7 15 27 15 45 0 18 7 38 15 45 8 7 15 20 15 29 0 10 14 30 30 46 17 16 30 36
30 46 0 9 7 22 15 29 8 7 15 20 15 29 0 10 14 30 30 46 17 16 30 36 30 45 0 9
20 36 45 60 25 24 45 51 45 60 0 8 34 49 75 90 41 41 75 82 75 91 0 20 38 56
65 61 11 2 21 12 23 23 5 25 251 275 272 275 8 0 109 94 225 210 115 115 218
210 229 212 12 2 22 12 24 23 2 11 30 47 62 80 32 33 60 69 62 80 2 11 12 21
24 23 11 2 135 117 274 257 140 140 262 255 271 255 19 0 59 41 59 61 0 19
431 449 450 449 8 0 103 88 210 195 107 107 202 195 211 195 19 0 59 41 59 61
0 9 14 28 30 44 17 16 30 36 30 45 0 20 70 90 91 90 8 0 102 88 209 195 107
107 202 195 210 195 20 0 180 161 180 181 0 8 14 28 30 44 33 32 41 84 16 105
-8 6 -16 21 -18 33 -2 13 -13 23 -28 27 -15 4 -26 15 -30 30 -3 14 -15 26 -25
28 -27 5 -65 42 -65 61 0 9 -34 50 -75 91 l-75 74 52 53 c29 29 60 53 68 53
20 0 60 -41 60 -61 0 -8 54 -68 120 -134 65 -65 120 -128 122 -139 2 -13 12
-22 24 -24 26 -4 61 -39 66 -67 2 -11 14 -22 28 -25 14 -3 26 -14 28 -25 2
-11 64 -81 137 -155 73 -74 135 -144 137 -155 2 -11 14 -22 28 -25 15 -3 26
-14 28 -26 2 -11 50 -67 107 -124 58 -58 105 -112 105 -120 0 -21 69 -87 95
-92 11 -2 21 -12 23 -24 2 -12 16 -34 33 -49 16 -16 29 -36 29 -45 0 -8 34
-49 75 -90 l75 -75 -990 -990 c-544 -544 -990 -997 -990 -1005 0 -24 7634
-7653 7654 -7649 23 5 2666 2651 2666 2669 0 20 -7624 7644 -7647 7648 -12 2
-71 -50 -168 -148 -128 -129 -154 -150 -181 -150 -33 0 -69 31 -76 65 -2 11
-14 22 -28 25 -15 3 -26 14 -28 26 -2 11 -77 94 -167 184 -91 91 -165 172
-165 181 0 19 -41 59 -61 59 -20 0 -59 41 -59 61 0 19 -41 59 -61 59 -20 0
-357 340 -361 365 -2 11 -12 21 -24 23 -26 4 -61 39 -66 67 -2 11 -12 21 -24
23 -26 4 -91 70 -96 97 -2 11 -12 21 -23 23 -27 5 -65 42 -65 63 0 9 -7 22
-15 29 -8 7 -15 20 -15 30 0 10 -7 23 -15 30 -14 12 -14 15 0 30 8 9 15 24 15
32 0 9 7 21 15 28 8 7 15 20 15 29 0 21 -40 61 -61 61 -19 0 -209 191 -209
211 0 8 -13 28 -30 44 l-30 29 22 23 c12 13 29 23 38 23 20 0 150 130 150 151
0 19 101 119 121 119 8 0 28 14 44 30 16 17 36 30 45 30 20 0 180 160 180 180
0 20 161 180 181 180 8 0 41 27 74 60 33 33 66 60 75 60 9 0 36 20 60 45 24
25 51 45 60 45 8 0 103 88 210 195 107 107 202 195 210 195 8 0 103 88 210
195 107 107 202 195 210 195 8 0 96 81 195 180 99 99 187 180 195 180 8 0 103
88 210 195 107 107 202 195 210 195 8 0 110 95 225 210 115 116 217 210 225
210 8 0 103 88 210 195 107 107 202 195 210 195 8 0 103 88 210 195 107 107
202 195 210 195 8 0 103 88 210 195 107 107 202 195 210 195 8 0 103 88 210
195 107 107 202 195 210 195 8 0 103 88 210 195 107 107 202 195 210 195 8 0
103 88 210 195 107 107 202 195 210 195 8 0 103 88 210 195 107 107 202 195
210 195 20 0 390 371 390 390 0 20 161 180 181 180 8 0 28 14 44 30 32 33 56
38 75 15 12 -14 15 -14 30 0 9 8 30 15 47 15 17 0 36 -7 43 -15 12 -14 15 -14
30 0 9 8 24 15 32 15 9 0 21 7 28 15 7 8 20 15 30 15 10 0 23 7 30 15 7 8 20
15 29 15 21 0 91 70 91 91 0 8 14 28 30 44 25 24 30 37 30 75 0 40 5 51 38 83
27 26 47 37 69 37 17 0 36 7 43 15 7 8 20 15 30 15 10 0 23 6 30 14 6 8 21 16
33 18 19 3 22 10 25 53 3 45 8 55 55 103 40 41 58 52 83 52 17 0 37 7 44 15 7
8 27 15 44 15 47 0 76 35 76 91 0 41 5 49 53 97 48 47 57 52 98 52 35 0 51 6
67 23 12 13 22 30 22 39 0 9 7 21 15 28 9 8 15 30 15 60 0 30 -6 52 -15 60 -8
7 -15 27 -15 44 0 27 -19 50 -135 166 -74 74 -135 142 -135 151 0 20 -41 59
-62 59 -9 0 -21 7 -28 15 -7 8 -27 15 -45 15 -18 0 -38 7 -45 15 -16 19 -74
19 -90 1z"/>
<path d="M6146 27015 c-4 -11 -20 -15 -54 -15 -32 0 -54 -5 -62 -15 -7 -8 -27
-15 -45 -15 -18 0 -38 -7 -45 -15 -7 -8 -27 -15 -45 -15 -18 0 -38 -7 -45 -15
-7 -8 -20 -15 -29 -15 -10 0 -30 -13 -46 -30 -16 -16 -36 -30 -46 -30 -9 0
-22 -7 -29 -15 -7 -8 -20 -15 -29 -15 -9 0 -37 -20 -61 -45 -24 -25 -51 -45
-60 -45 -20 0 -150 -131 -150 -151 0 -8 -20 -35 -45 -59 -25 -24 -45 -52 -45
-61 0 -9 -7 -22 -15 -29 -8 -7 -15 -20 -15 -30 0 -10 -7 -23 -15 -30 -8 -7
-15 -20 -15 -30 0 -10 -7 -23 -15 -30 -8 -7 -15 -20 -15 -30 0 -10 -7 -23 -15
-30 -8 -7 -15 -27 -15 -45 0 -18 -7 -38 -15 -45 -10 -8 -15 -30 -15 -62 0 -34
-4 -50 -15 -54 -13 -5 -15 -35 -15 -184 0 -149 2 -179 15 -184 11 -4 15 -22
15 -69 0 -45 5 -68 15 -77 8 -7 15 -27 15 -45 0 -18 7 -38 15 -45 8 -7 15 -27
15 -45 0 -18 7 -38 15 -45 8 -7 15 -20 15 -30 0 -10 7 -23 15 -30 8 -7 15 -20
15 -29 0 -10 14 -30 30 -46 17 -16 30 -36 30 -45 0 -9 14 -29 30 -45 17 -16
30 -36 30 -45 0 -20 280 -300 301 -300 8 0 28 -13 44 -30 16 -16 36 -30 45
-30 9 0 29 -13 45 -30 16 -16 36 -30 46 -30 9 0 22 -7 29 -15 7 -8 20 -15 30
-15 10 0 23 -7 30 -15 7 -8 20 -15 30 -15 10 0 23 -7 30 -15 7 -8 20 -15 30
-15 10 0 23 -7 30 -15 7 -8 20 -15 30 -15 10 0 23 -7 30 -15 7 -8 20 -15 30
-15 10 0 23 -7 30 -15 7 -8 20 -15 30 -15 10 0 23 -7 30 -15 7 -8 20 -15 30
-15 10 0 23 -7 30 -15 7 -8 27 -15 45 -15 18 0 38 -7 45 -15 7 -8 20 -15 30
-15 10 0 23 -7 30 -15 7 -8 20 -15 30 -15 10 0 23 -7 30 -15 7 -8 20 -15 30
-15 10 0 23 -7 30 -15 7 -8 20 -15 30 -15 10 0 23 -7 30 -15 7 -8 20 -15 30
-15 10 0 23 -7 30 -15 7 -8 20 -15 30 -15 10 0 23 -7 30 -15 7 -8 20 -15 30
-15 10 0 23 -7 30 -15 7 -8 27 -15 45 -15 18 0 38 -7 45 -15 7 -8 20 -15 30
-15 10 0 23 -7 30 -15 7 -8 20 -15 30 -15 10 0 23 -7 30 -15 7 -8 20 -15 30
-15 10 0 23 -7 30 -15 7 -8 20 -15 30 -15 10 0 23 -7 30 -15 7 -8 20 -15 30
-15 10 0 23 -7 30 -15 7 -8 20 -15 30 -15 10 0 23 -7 30 -15 7 -8 20 -15 30
-15 10 0 23 -7 30 -15 7 -8 27 -15 45 -15 18 0 38 -7 45 -15 7 -8 20 -15 30
-15 10 0 23 -7 30 -15 7 -8 20 -15 30 -15 10 0 23 -7 30 -15 7 -8 20 -15 30
-15 10 0 23 -7 30 -15 7 -8 20 -15 30 -15 10 0 23 -7 30 -15 7 -8 20 -15 30
-15 10 0 23 -7 30 -15 7 -8 20 -15 30 -15 10 0 23 -7 30 -15 7 -8 20 -15 30
-15 10 0 23 -7 30 -15 7 -8 27 -15 45 -15 18 0 38 -7 45 -15 7 -8 20 -15 30
-15 10 0 23 -7 30 -15 7 -8 20 -15 30 -15 10 0 23 -7 30 -15 7 -8 20 -15 30
-15 10 0 23 -7 30 -15 7 -8 20 -15 30 -15 10 0 23 -7 30 -15 7 -8 20 -15 30
-15 10 0 23 -7 30 -15 7 -8 20 -15 30 -15 10 0 23 -7 30 -15 7 -8 27 -15 45
-15 18 0 38 -7 45 -15 7 -8 20 -15 30 -15 10 0 23 -7 30 -15 7 -8 20 -15 30
-15 10 0 23 -7 30 -15 7 -8 20 -15 30 -15 10 0 23 -7 30 -15 7 -8 20 -15 30
-15 10 0 23 -7 30 -15 7 -8 20 -15 30 -15 10 0 23 -7 30 -15 7 -8 20 -15 30
-15 10 0 23 -7 30 -15 7 -8 20 -15 30 -15 10 0 23 -7 30 -15 7 -8 27 -15 45
-15 18 0 38 -7 45 -15 7 -8 20 -15 30 -15 10 0 23 -7 30 -15 7 -8 20 -15 30
-15 10 0 23 -7 30 -15 7 -8 20 -15 30 -15 10 0 23 -7 30 -15 7 -8 20 -15 30
-15 10 0 23 -7 30 -15 7 -8 20 -15 30 -15 10 0 23 -7 30 -15 7 -8 20 -15 30
-15 10 0 23 -7 30 -15 7 -8 20 -15 30 -15 10 0 23 -7 30 -15 7 -8 27 -15 45
-15 18 0 38 -7 45 -15 7 -8 20 -15 30 -15 10 0 23 -7 30 -15 7 -8 20 -15 30
-15 10 0 23 -7 30 -15 7 -8 20 -15 30 -15 10 0 23 -7 30 -15 7 -8 20 -15 30
-15 10 0 23 -7 30 -15 7 -8 20 -15 30 -15 10 0 23 -7 30 -15 7 -8 20 -15 30
-15 10 0 23 -7 30 -15 7 -8 20 -15 30 -15 10 0 23 -7 30 -15 7 -8 27 -15 45
-15 18 0 38 -7 45 -15 7 -8 20 -15 30 -15 10 0 23 -7 30 -15 7 -8 20 -15 30
-15 10 0 23 -7 30 -15 7 -8 20 -15 30 -15 10 0 23 -7 30 -15 7 -8 20 -15 30
-15 10 0 23 -7 30 -15 7 -8 20 -15 30 -15 10 0 23 -7 30 -15 7 -8 20 -15 30
-15 10 0 23 -7 30 -15 7 -8 20 -15 30 -15 10 0 23 -7 30 -15 7 -8 27 -15 45
-15 18 0 38 -7 45 -15 7 -8 20 -15 30 -15 10 0 23 -7 30 -15 7 -8 20 -15 30
-15 10 0 23 -7 30 -15 7 -8 20 -15 30 -15 10 0 23 -7 30 -15 7 -8 20 -15 30
-15 10 0 23 -7 30 -15 7 -8 20 -15 30 -15 10 0 23 -7 30 -15 7 -8 20 -15 30
-15 10 0 23 -7 30 -15 7 -8 20 -15 30 -15 10 0 23 -7 30 -15 7 -8 20 -15 30
-15 10 0 23 -7 30 -15 7 -8 20 -15 30 -15 10 0 23 -7 30 -15 7 -8 20 -15 29
-15 10 0 30 -13 46 -30 16 -16 36 -30 45 -30 20 0 210 -190 210 -211 0 -8 14
-28 30 -44 21 -20 30 -38 30 -61 0 -17 7 -37 15 -44 9 -8 15 -30 15 -60 0 -30
6 -52 15 -60 11 -9 15 -35 15 -105 0 -70 -4 -96 -15 -105 -10 -9 -15 -32 -15
-75 0 -43 -5 -66 -15 -75 -8 -7 -15 -27 -15 -45 0 -18 -7 -38 -15 -45 -8 -7
-15 -20 -15 -29 0 -9 -20 -36 -45 -61 -24 -24 -45 -53 -47 -64 -2 -12 -12 -22
-24 -24 -11 -2 -40 -23 -64 -47 -25 -25 -52 -45 -61 -45 -9 0 -22 -7 -29 -15
-7 -8 -20 -15 -30 -15 -10 0 -23 -7 -30 -15 -7 -8 -20 -15 -30 -15 -10 0 -23
-7 -30 -15 -7 -8 -27 -15 -45 -15 -18 0 -38 -7 -45 -15 -9 -10 -32 -15 -75
-15 -43 0 -66 -5 -75 -15 -11 -13 -272 -15 -2235 -15 -1922 0 -2224 2 -2235
14 -6 8 -21 16 -33 18 -19 3 -22 10 -25 52 -3 45 0 52 34 87 21 22 45 39 54
39 9 0 42 27 75 60 33 33 66 60 75 60 9 0 42 27 75 60 33 33 66 60 75 60 9 0
42 27 75 60 33 33 66 60 75 60 9 0 42 27 75 60 33 33 66 60 75 60 9 0 42 27
75 60 33 33 66 60 75 60 9 0 42 27 75 60 33 33 66 60 75 60 9 0 42 27 75 60
33 33 66 60 75 60 9 0 42 27 75 60 33 33 66 60 75 60 9 0 42 27 75 60 33 33
66 60 75 60 9 0 42 27 75 60 33 33 66 60 75 60 9 0 42 27 75 60 33 33 66 60
75 60 9 0 36 20 60 45 24 25 51 45 60 45 9 0 42 27 75 60 33 33 66 60 75 60 9
0 42 27 75 60 33 33 66 60 75 60 9 0 42 27 75 60 33 33 66 60 75 60 9 0 33 17
53 38 l37 38 -23 22 c-13 12 -30 22 -39 22 -9 0 -21 7 -28 15 -7 8 -27 15 -45
15 -18 0 -38 7 -45 15 -7 8 -20 15 -30 15 -10 0 -23 7 -30 15 -7 8 -20 15 -30
15 -10 0 -23 7 -30 15 -7 8 -20 15 -30 15 -10 0 -23 7 -30 15 -7 8 -20 15 -30
15 -10 0 -23 7 -30 15 -7 8 -20 15 -30 15 -10 0 -23 7 -30 15 -7 8 -20 15 -30
15 -10 0 -23 7 -30 15 -7 8 -20 15 -30 15 -10 0 -23 7 -30 15 -7 8 -20 15 -30
15 -10 0 -23 7 -30 15 -7 8 -20 15 -30 15 -10 0 -23 7 -30 15 -7 8 -27 15 -45
15 -18 0 -38 7 -45 15 -7 8 -20 15 -30 15 -10 0 -23 7 -30 15 -7 8 -20 15 -30
15 -10 0 -23 7 -30 15 -7 8 -20 15 -30 15 -10 0 -23 7 -30 15 -21 25 -44 17
-90 -30 -24 -25 -51 -45 -60 -45 -9 0 -42 -27 -75 -60 -33 -33 -66 -60 -75
-60 -9 0 -42 -27 -75 -60 -33 -33 -66 -60 -75 -60 -9 0 -42 -27 -75 -60 -33
-33 -66 -60 -75 -60 -9 0 -42 -27 -75 -60 -33 -33 -66 -60 -75 -60 -9 0 -42
-27 -75 -60 -33 -33 -66 -60 -75 -60 -9 0 -42 -27 -75 -60 -33 -33 -66 -60
-75 -60 -9 0 -42 -27 -75 -60 -33 -33 -66 -60 -75 -60 -9 0 -42 -27 -75 -60
-33 -33 -66 -60 -75 -60 -9 0 -42 -27 -75 -60 -33 -33 -66 -60 -75 -60 -9 0
-42 -27 -75 -60 -33 -33 -66 -60 -75 -60 -9 0 -42 -27 -75 -60 -33 -33 -66
-60 -75 -60 -9 0 -42 -27 -75 -60 -33 -33 -66 -60 -75 -60 -20 0 -300 -281
-300 -301 0 -8 -13 -28 -30 -44 -16 -16 -30 -36 -30 -46 0 -9 -7 -22 -15 -29
-8 -7 -15 -20 -15 -30 0 -10 -7 -23 -15 -30 -8 -7 -15 -27 -15 -45 0 -18 -7
-38 -15 -45 -8 -7 -15 -27 -15 -45 0 -18 -7 -38 -15 -45 -13 -10 -15 -52 -15
-255 0 -203 2 -245 15 -255 9 -8 15 -30 15 -60 0 -30 6 -52 15 -60 8 -7 15
-20 15 -30 0 -10 7 -23 15 -30 8 -7 15 -27 15 -44 0 -23 9 -41 30 -61 17 -16
30 -36 30 -45 0 -9 14 -29 30 -45 17 -16 30 -36 30 -45 0 -20 190 -210 211
-210 8 0 28 -13 44 -30 16 -16 36 -30 46 -30 9 0 22 -7 29 -15 7 -8 20 -15 30
-15 10 0 23 -7 30 -15 7 -8 20 -15 30 -15 10 0 23 -7 30 -15 7 -8 20 -15 30
-15 10 0 23 -7 30 -15 8 -9 30 -15 60 -15 30 0 52 -6 60 -15 11 -13 300 -15
2490 -15 2190 0 2479 2 2490 15 9 10 32 15 75 15 43 0 66 5 75 15 7 8 27 15
45 15 18 0 38 7 45 15 7 8 27 15 45 15 18 0 38 7 45 15 7 8 27 15 45 15 18 0
38 7 45 15 7 8 20 15 30 15 10 0 23 7 30 15 7 8 20 15 30 15 10 0 23 7 30 15
7 8 20 15 29 15 10 0 30 14 46 30 16 17 36 30 46 30 9 0 22 7 29 15 7 8 20 15
29 15 9 0 43 27 76 60 33 33 66 60 75 60 20 0 210 191 210 211 0 8 20 35 45
59 25 24 45 51 45 60 0 9 14 29 30 45 17 16 30 36 30 46 0 9 7 22 15 29 8 7
15 20 15 30 0 10 7 23 15 30 8 7 15 20 15 30 0 10 7 23 15 30 8 7 15 20 15 30
0 10 7 23 15 30 8 7 15 27 15 45 0 18 7 38 15 45 9 8 15 30 15 60 0 30 6 52
15 60 10 9 15 32 15 75 0 43 5 66 15 75 13 11 15 62 15 345 0 283 -2 334 -15
345 -10 9 -15 32 -15 75 0 43 -5 66 -15 75 -8 7 -15 27 -15 45 0 18 -7 38 -15
45 -8 7 -15 27 -15 45 0 18 -7 38 -15 45 -8 7 -15 20 -15 30 0 10 -7 23 -15
30 -8 7 -15 20 -15 30 0 10 -7 23 -15 30 -8 7 -15 20 -15 30 0 10 -7 23 -15
30 -8 7 -15 20 -15 29 0 10 -13 30 -30 46 -16 16 -30 36 -30 45 0 9 -20 36
-45 60 -25 24 -45 51 -45 60 0 20 -190 210 -211 210 -8 0 -35 20 -59 45 -24
25 -51 45 -60 45 -9 0 -29 14 -45 30 -16 17 -36 30 -45 30 -9 0 -29 14 -45 30
-16 17 -36 30 -46 30 -9 0 -22 7 -29 15 -7 8 -20 15 -29 15 -10 0 -30 14 -46
30 -16 17 -36 30 -46 30 -9 0 -22 7 -29 15 -7 8 -20 15 -30 15 -10 0 -23 7
-30 15 -7 8 -20 15 -30 15 -10 0 -23 7 -30 15 -7 8 -27 15 -45 15 -18 0 -38 7
-45 15 -7 8 -20 15 -30 15 -10 0 -23 7 -30 15 -7 8 -20 15 -30 15 -10 0 -23 7
-30 15 -7 8 -20 15 -30 15 -10 0 -23 7 -30 15 -7 8 -20 15 -30 15 -10 0 -23 7
-30 15 -7 8 -20 15 -30 15 -10 0 -23 7 -30 15 -7 8 -20 15 -30 15 -10 0 -23 7
-30 15 -7 8 -20 15 -30 15 -10 0 -23 7 -30 15 -7 8 -20 15 -30 15 -10 0 -23 7
-30 15 -7 8 -20 15 -30 15 -10 0 -23 7 -30 15 -7 8 -20 15 -30 15 -10 0 -23 7
-30 15 -7 8 -20 15 -30 15 -10 0 -23 7 -30 15 -7 8 -27 15 -45 15 -18 0 -38 7
-45 15 -7 8 -20 15 -30 15 -10 0 -23 7 -30 15 -7 8 -20 15 -30 15 -10 0 -23 7
-30 15 -7 8 -20 15 -30 15 -10 0 -23 7 -30 15 -7 8 -20 15 -30 15 -10 0 -23 7
-30 15 -7 8 -20 15 -30 15 -10 0 -23 7 -30 15 -7 8 -20 15 -30 15 -10 0 -23 7
-30 15 -7 8 -20 15 -30 15 -10 0 -23 7 -30 15 -7 8 -27 15 -45 15 -18 0 -38 7
-45 15 -7 8 -20 15 -30 15 -10 0 -23 7 -30 15 -7 8 -20 15 -30 15 -10 0 -23 7
-30 15 -7 8 -20 15 -30 15 -10 0 -23 7 -30 15 -7 8 -20 15 -30 15 -10 0 -23 7
-30 15 -7 8 -20 15 -30 15 -10 0 -23 7 -30 15 -7 8 -20 15 -30 15 -10 0 -23 7
-30 15 -7 8 -20 15 -30 15 -10 0 -23 7 -30 15 -7 8 -27 15 -45 15 -18 0 -38 7
-45 15 -7 8 -20 15 -30 15 -10 0 -23 7 -30 15 -7 8 -20 15 -30 15 -10 0 -23 7
-30 15 -7 8 -20 15 -30 15 -10 0 -23 7 -30 15 -7 8 -20 15 -30 15 -10 0 -23 7
-30 15 -7 8 -20 15 -30 15 -10 0 -23 7 -30 15 -7 8 -20 15 -30 15 -10 0 -23 7
-30 15 -7 8 -27 15 -45 15 -18 0 -38 7 -45 15 -7 8 -20 15 -30 15 -10 0 -23 7
-30 15 -7 8 -20 15 -30 15 -10 0 -23 7 -30 15 -7 8 -20 15 -30 15 -10 0 -23 7
-30 15 -7 8 -20 15 -30 15 -10 0 -23 7 -30 15 -7 8 -20 15 -30 15 -10 0 -23 7
-30 15 -7 8 -20 15 -30 15 -10 0 -23 7 -30 15 -7 8 -27 15 -45 15 -18 0 -38 7
-45 15 -7 8 -20 15 -30 15 -10 0 -23 7 -30 15 -7 8 -20 15 -30 15 -10 0 -23 7
-30 15 -7 8 -20 15 -30 15 -10 0 -23 7 -30 15 -7 8 -20 15 -30 15 -10 0 -23 7
-30 15 -7 8 -20 15 -30 15 -10 0 -23 7 -30 15 -7 8 -20 15 -30 15 -10 0 -23 7
-30 15 -7 8 -27 15 -45 15 -18 0 -38 7 -45 15 -7 8 -20 15 -30 15 -10 0 -23 7
-30 15 -7 8 -20 15 -30 15 -10 0 -23 7 -30 15 -7 8 -20 15 -30 15 -10 0 -23 7
-30 15 -7 8 -20 15 -30 15 -10 0 -23 7 -30 15 -7 8 -20 15 -30 15 -10 0 -23 7
-30 15 -7 8 -20 15 -30 15 -10 0 -23 7 -30 15 -7 8 -27 15 -45 15 -18 0 -38 7
-45 15 -7 8 -20 15 -30 15 -10 0 -23 7 -30 15 -7 8 -20 15 -30 15 -10 0 -23 7
-30 15 -7 8 -20 15 -30 15 -10 0 -23 7 -30 15 -7 8 -20 15 -30 15 -10 0 -23 7
-30 15 -7 8 -20 15 -30 15 -10 0 -23 7 -30 15 -7 8 -20 15 -30 15 -10 0 -23 7
-30 15 -7 8 -27 15 -45 15 -18 0 -38 7 -45 15 -7 8 -20 15 -30 15 -10 0 -23 7
-30 15 -7 8 -20 15 -30 15 -10 0 -23 7 -30 15 -7 8 -20 15 -30 15 -10 0 -23 7
-30 15 -7 8 -20 15 -30 15 -10 0 -23 7 -30 15 -7 8 -20 15 -30 15 -10 0 -23 7
-30 15 -7 8 -20 15 -30 15 -10 0 -23 7 -30 15 -7 8 -27 15 -45 15 -18 0 -38 7
-45 15 -7 8 -20 15 -30 15 -10 0 -23 7 -30 15 -7 8 -20 15 -30 15 -10 0 -23 7
-30 15 -7 8 -20 15 -30 15 -10 0 -23 7 -30 15 -7 8 -20 15 -30 15 -10 0 -23 7
-30 15 -7 8 -20 15 -29 15 -10 0 -30 14 -46 30 -16 17 -36 30 -45 30 -20 0
-120 101 -120 122 0 8 -7 21 -15 28 -8 7 -15 20 -15 30 0 10 -7 23 -15 30 -8
7 -15 27 -15 44 0 25 11 43 53 84 29 29 60 52 69 52 8 0 21 7 28 15 7 8 27 15
45 15 18 0 38 7 45 15 11 13 345 15 2895 15 2550 0 2884 2 2895 15 7 8 20 15
30 15 10 0 23 7 30 15 7 8 20 15 29 15 21 0 151 130 151 152 0 8 7 21 15 28 8
7 15 20 15 30 0 10 7 23 15 30 9 8 15 30 15 60 0 30 6 52 15 60 10 9 15 32 15
75 0 43 -5 66 -15 75 -9 8 -15 30 -15 60 0 30 -6 52 -15 60 -8 7 -15 20 -15
29 0 10 -13 30 -30 46 -16 16 -30 36 -30 45 0 20 -71 90 -91 90 -8 0 -28 14
-44 30 -21 22 -38 30 -62 30 -21 0 -36 6 -39 15 -5 13 -348 15 -3004 15 -2656
0 -2999 -2 -3004 -15z"/>
<path d="M14520 24015 c-8 -9 -30 -15 -60 -15 -30 0 -52 -6 -60 -15 -7 -8 -27
-15 -45 -15 -18 0 -38 -7 -45 -15 -7 -8 -20 -15 -30 -15 -10 0 -23 -7 -30 -15
-7 -8 -20 -15 -30 -15 -10 0 -23 -7 -30 -15 -7 -8 -20 -15 -29 -15 -10 0 -30
-13 -46 -30 -16 -16 -36 -30 -45 -30 -9 0 -29 -13 -45 -30 -16 -16 -36 -30
-45 -30 -20 0 -180 -160 -180 -181 0 -8 -20 -35 -45 -59 -25 -24 -45 -52 -45
-61 0 -9 -7 -22 -15 -29 -8 -7 -15 -20 -15 -30 0 -10 -7 -23 -15 -30 -8 -7
-15 -20 -15 -30 0 -10 -7 -23 -15 -30 -8 -7 -15 -20 -15 -30 0 -10 -7 -23 -15
-30 -8 -7 -15 -27 -15 -45 0 -18 -7 -38 -15 -45 -9 -8 -15 -30 -15 -60 0 -30
-6 -52 -15 -60 -13 -11 -15 -185 -15 -1455 0 -1270 2 -1444 15 -1455 8 -7 15
-20 15 -29 0 -10 14 -30 30 -46 17 -16 30 -36 30 -45 0 -20 71 -90 91 -90 8 0
28 -13 44 -30 16 -16 36 -30 46 -30 9 0 22 -7 29 -15 10 -12 43 -15 180 -15
137 0 170 3 180 15 7 8 27 15 44 15 24 0 42 10 76 45 24 24 53 45 64 47 12 2
22 12 24 24 2 12 16 34 33 49 16 16 29 36 29 46 0 9 7 22 15 29 8 7 15 20 15
30 0 10 7 23 15 30 13 11 15 172 15 1335 0 1163 2 1324 15 1335 8 7 15 20 15
30 0 10 6 23 14 30 8 6 16 21 18 33 2 13 11 23 24 25 12 2 34 16 49 33 16 16
36 29 46 29 9 0 22 7 29 15 8 9 30 15 60 15 30 0 52 -6 60 -15 7 -8 20 -15 30
-15 10 0 23 -7 30 -15 7 -8 20 -15 29 -15 9 0 37 -20 61 -45 24 -25 51 -45 60
-45 9 0 36 -20 60 -45 24 -25 51 -45 60 -45 9 0 36 -20 60 -45 24 -25 51 -45
60 -45 9 0 36 -20 60 -45 24 -25 51 -45 60 -45 9 0 36 -20 60 -45 24 -25 51
-45 60 -45 9 0 36 -20 60 -45 24 -25 51 -45 60 -45 9 0 36 -20 60 -45 24 -25
51 -45 60 -45 9 0 36 -20 60 -45 24 -25 51 -45 60 -45 9 0 36 -20 60 -45 24
-25 51 -45 60 -45 9 0 36 -20 60 -45 24 -25 51 -45 60 -45 9 0 42 -27 75 -60
33 -33 66 -60 75 -60 9 0 36 -20 60 -45 24 -25 51 -45 60 -45 9 0 36 -20 60
-45 24 -25 51 -45 60 -45 9 0 36 -20 60 -45 24 -25 51 -45 60 -45 9 0 36 -20
60 -45 24 -25 51 -45 60 -45 9 0 36 -20 60 -45 24 -25 51 -45 60 -45 9 0 36
-20 60 -45 24 -25 51 -45 60 -45 9 0 36 -20 60 -45 24 -25 51 -45 60 -45 9 0
36 -20 60 -45 24 -25 51 -45 60 -45 9 0 36 -20 60 -45 24 -25 51 -45 60 -45 9
0 36 -20 60 -45 24 -25 51 -45 60 -45 9 0 36 -20 60 -45 24 -25 51 -45 60 -45
9 0 36 -20 60 -45 24 -25 51 -45 60 -45 9 0 36 -20 60 -45 24 -25 51 -45 60
-45 9 0 36 -20 60 -45 24 -25 51 -45 60 -45 9 0 36 -20 60 -45 24 -25 51 -45
60 -45 9 0 36 -20 60 -45 24 -25 51 -45 60 -45 9 0 36 -20 60 -45 24 -25 51
-45 60 -45 9 0 36 -20 60 -45 24 -25 51 -45 60 -45 9 0 36 -20 60 -45 24 -25
51 -45 60 -45 9 0 42 -27 75 -60 33 -33 66 -60 75 -60 9 0 36 -20 60 -45 24
-25 52 -45 61 -45 9 0 22 -7 29 -15 7 -8 20 -15 30 -15 10 0 23 -7 30 -15 7
-8 20 -15 30 -15 10 0 23 -7 30 -15 7 -8 20 -15 30 -15 10 0 23 -7 30 -15 7
-8 27 -15 45 -15 18 0 38 -7 45 -15 8 -9 30 -15 60 -15 30 0 52 -6 60 -15 10
-13 50 -15 240 -15 190 0 230 2 240 15 9 10 32 15 75 15 43 0 66 5 75 15 7 8
27 15 45 15 18 0 38 7 45 15 7 8 20 15 30 15 10 0 23 7 30 15 7 8 20 15 30 15
10 0 23 7 30 15 7 8 20 15 30 15 10 0 23 7 30 15 7 8 20 15 29 15 9 0 37 20
61 45 24 25 51 45 60 45 20 0 210 191 210 211 0 8 14 28 30 44 17 16 30 36 30
45 0 9 14 29 30 45 17 16 30 36 30 46 0 9 7 22 15 29 8 7 15 20 15 30 0 10 7
23 15 30 8 7 15 27 15 45 0 18 7 38 15 45 8 7 15 27 15 45 0 18 7 38 15 45 10
9 15 32 15 75 0 43 5 66 15 75 13 11 15 155 15 1185 0 1030 -2 1174 -15 1185
-9 8 -15 30 -15 60 0 30 -6 52 -15 60 -8 7 -15 27 -15 45 0 18 -7 38 -15 45
-8 7 -15 20 -15 29 0 10 -13 30 -30 46 -16 16 -30 36 -30 45 0 20 -220 240
-241 240 -8 0 -28 14 -44 30 -16 17 -36 30 -46 30 -9 0 -22 7 -29 15 -7 8 -27
15 -45 15 -18 0 -38 7 -45 15 -7 8 -27 15 -45 15 -18 0 -38 7 -45 15 -10 13
-50 15 -240 15 -190 0 -230 -2 -240 -15 -7 -8 -27 -15 -45 -15 -18 0 -38 -7
-45 -15 -7 -8 -27 -15 -45 -15 -18 0 -38 -7 -45 -15 -7 -8 -20 -15 -29 -15
-10 0 -30 -13 -46 -30 -16 -16 -36 -30 -46 -30 -9 0 -22 -7 -29 -15 -7 -8 -20
-15 -30 -15 -10 0 -23 -7 -30 -15 -7 -8 -20 -15 -30 -15 -10 0 -23 -7 -30 -15
-7 -8 -20 -15 -29 -15 -10 0 -30 -13 -46 -30 -16 -16 -36 -30 -46 -30 -9 0
-22 -7 -29 -15 -7 -8 -20 -15 -30 -15 -10 0 -23 -7 -30 -15 -7 -8 -20 -15 -30
-15 -10 0 -23 -7 -30 -15 -7 -8 -20 -15 -30 -15 -10 0 -23 -7 -30 -15 -7 -8
-20 -15 -30 -15 -10 0 -23 -7 -30 -15 -7 -8 -20 -15 -29 -15 -10 0 -30 -13
-46 -30 -16 -16 -36 -30 -46 -30 -9 0 -22 -7 -29 -15 -7 -8 -20 -15 -30 -15
-10 0 -23 -7 -30 -15 -7 -8 -20 -15 -30 -15 -10 0 -23 -7 -30 -15 -7 -8 -20
-15 -30 -15 -10 0 -23 -7 -30 -15 -7 -8 -20 -15 -30 -15 -10 0 -23 -7 -30 -15
-7 -8 -20 -15 -30 -15 -10 0 -23 -7 -30 -15 -7 -8 -20 -15 -30 -15 -10 0 -23
-7 -30 -15 -7 -8 -20 -15 -29 -15 -10 0 -30 -13 -46 -30 -16 -16 -36 -30 -46
-30 -9 0 -22 -7 -29 -15 -7 -8 -20 -15 -30 -15 -10 0 -23 -7 -30 -15 -7 -8
-20 -15 -30 -15 -10 0 -23 -7 -30 -15 -7 -8 -20 -15 -30 -15 -10 0 -23 -7 -30
-15 -7 -8 -20 -15 -30 -15 -10 0 -23 -7 -30 -15 -7 -8 -20 -15 -30 -15 -10 0
-23 -7 -30 -15 -7 -8 -20 -15 -30 -15 -10 0 -23 -7 -30 -15 -7 -8 -20 -15 -30
-15 -10 0 -23 -7 -30 -15 -7 -8 -20 -15 -30 -15 -10 0 -23 -7 -30 -15 -7 -8
-20 -15 -30 -15 -10 0 -23 -6 -30 -14 -6 -8 -21 -16 -33 -18 -40 -6 -32 -38
24 -94 29 -30 60 -54 69 -54 9 0 36 -20 60 -45 24 -25 51 -45 60 -45 9 0 36
-20 60 -45 24 -25 51 -45 60 -45 9 0 36 -20 60 -45 24 -25 51 -45 60 -45 9 0
36 -20 60 -45 24 -25 51 -45 60 -45 9 0 36 -20 60 -45 24 -25 51 -45 60 -45 9
0 36 -20 60 -45 24 -25 52 -45 61 -45 9 0 22 -7 29 -15 12 -14 15 -14 30 0 9
8 24 15 32 15 9 0 21 7 28 15 7 8 20 15 30 15 10 0 23 7 30 15 7 8 20 15 30
15 10 0 23 7 30 15 7 8 20 15 30 15 10 0 23 7 30 15 7 8 20 15 30 15 10 0 23
7 30 15 7 8 20 15 29 15 10 0 30 14 46 30 16 17 36 30 46 30 9 0 22 7 29 15 7
8 20 15 30 15 10 0 23 7 30 15 7 8 20 15 30 15 10 0 23 7 30 15 7 8 20 15 30
15 10 0 23 7 30 15 7 8 20 15 30 15 10 0 23 7 30 15 7 8 20 15 30 15 10 0 23
7 30 15 7 8 20 15 29 15 10 0 30 14 46 30 16 17 36 30 46 30 9 0 22 7 29 15 7
8 20 15 30 15 10 0 23 7 30 15 7 8 20 15 30 15 10 0 23 7 30 15 7 8 20 15 30
15 10 0 23 7 30 15 7 8 20 15 29 15 10 0 30 14 46 30 16 17 36 30 46 30 9 0
22 7 29 15 7 8 20 15 30 15 10 0 23 7 30 15 7 8 20 15 30 15 10 0 23 7 30 15
7 8 16 12 21 9 5 -3 9 -394 9 -908 0 -791 -2 -905 -15 -916 -9 -8 -15 -30 -15
-60 0 -30 -6 -52 -15 -60 -8 -7 -15 -20 -15 -29 0 -21 -70 -91 -92 -91 -8 0
-21 -7 -28 -15 -9 -11 -35 -15 -104 -15 -89 0 -93 1 -121 30 -16 17 -36 30
-45 30 -9 0 -36 20 -60 45 -24 25 -51 45 -60 45 -9 0 -36 20 -60 45 -24 25
-51 45 -60 45 -9 0 -36 20 -60 45 -24 25 -51 45 -60 45 -9 0 -36 20 -60 45
-24 25 -51 45 -60 45 -9 0 -36 20 -60 45 -24 25 -51 45 -60 45 -9 0 -36 20
-60 45 -24 25 -51 45 -60 45 -9 0 -36 20 -60 45 -24 25 -51 45 -60 45 -9 0
-36 20 -60 45 -24 25 -51 45 -60 45 -9 0 -36 20 -60 45 -24 25 -51 45 -60 45
-9 0 -36 20 -60 45 -24 25 -51 45 -60 45 -9 0 -36 20 -60 45 -24 25 -51 45
-60 45 -9 0 -36 20 -60 45 -24 25 -51 45 -60 45 -9 0 -36 20 -60 45 -24 25
-51 45 -60 45 -9 0 -36 20 -60 45 -24 25 -51 45 -60 45 -9 0 -36 20 -60 45
-24 25 -51 45 -60 45 -9 0 -36 20 -60 45 -24 25 -51 45 -60 45 -9 0 -42 27
-75 60 -33 33 -66 60 -75 60 -9 0 -36 20 -60 45 -24 25 -51 45 -60 45 -9 0
-36 20 -60 45 -24 25 -51 45 -60 45 -9 0 -36 20 -60 45 -24 25 -51 45 -60 45
-9 0 -36 20 -60 45 -24 25 -51 45 -60 45 -9 0 -36 20 -60 45 -24 25 -51 45
-60 45 -9 0 -36 20 -60 45 -24 25 -51 45 -60 45 -9 0 -36 20 -60 45 -24 25
-51 45 -60 45 -9 0 -36 20 -60 45 -24 25 -51 45 -60 45 -9 0 -36 20 -60 45
-24 25 -51 45 -60 45 -9 0 -36 20 -60 45 -24 25 -51 45 -60 45 -9 0 -36 20
-60 45 -24 25 -51 45 -60 45 -9 0 -36 20 -60 45 -24 25 -51 45 -60 45 -9 0
-36 20 -60 45 -24 25 -51 45 -60 45 -9 0 -36 20 -60 45 -24 25 -51 45 -60 45
-9 0 -29 14 -45 30 -16 17 -36 30 -45 30 -9 0 -36 20 -60 45 -24 25 -52 45
-61 45 -9 0 -22 7 -29 15 -7 8 -27 15 -45 15 -18 0 -38 7 -45 15 -7 8 -20 15
-30 15 -10 0 -23 7 -30 15 -8 9 -30 15 -60 15 -30 0 -52 6 -60 15 -11 13 -55
15 -285 15 -230 0 -274 -2 -285 -15z"/>
<path d="M22110 24015 c-7 -8 -27 -15 -44 -15 -23 0 -41 -9 -61 -30 -16 -16
-36 -30 -45 -30 -20 0 -90 -71 -90 -91 0 -8 -13 -28 -30 -44 -16 -16 -30 -36
-30 -46 0 -9 -7 -22 -15 -29 -13 -11 -15 -223 -15 -1800 0 -1577 2 -1789 15
-1800 8 -7 15 -20 15 -29 0 -10 14 -30 30 -46 17 -16 30 -36 30 -45 0 -20 71
-90 91 -90 8 0 28 -13 44 -30 16 -16 36 -30 46 -30 9 0 22 -7 29 -15 10 -12
45 -15 195 -15 150 0 185 3 195 15 7 8 20 15 29 15 10 0 30 14 46 30 16 17 36
30 45 30 20 0 90 71 90 91 0 8 14 28 30 44 17 16 30 36 30 46 0 9 7 22 15 29
13 11 15 223 15 1800 0 1577 -2 1789 -15 1800 -8 7 -15 20 -15 29 0 10 -13 30
-30 46 -16 16 -30 36 -30 45 0 20 -71 90 -91 90 -8 0 -28 14 -44 30 -20 21
-38 30 -61 30 -17 0 -37 7 -44 15 -10 12 -42 15 -165 15 -123 0 -155 -3 -165
-15z"/>
<path d="M24780 24015 c-8 -9 -30 -15 -60 -15 -30 0 -52 -6 -60 -15 -7 -8 -20
-15 -30 -15 -10 0 -23 -7 -30 -15 -7 -8 -20 -15 -30 -15 -10 0 -23 -7 -30 -15
-7 -8 -20 -15 -30 -15 -10 0 -23 -7 -30 -15 -7 -8 -20 -15 -29 -15 -10 0 -30
-13 -46 -30 -16 -16 -36 -30 -44 -30 -21 0 -331 -311 -331 -331 0 -9 -7 -22
-15 -29 -8 -7 -15 -20 -15 -29 0 -10 -13 -30 -30 -46 -16 -16 -30 -36 -30 -46
0 -9 -7 -22 -15 -29 -8 -7 -15 -27 -15 -45 0 -18 -7 -38 -15 -45 -8 -7 -15
-27 -15 -45 0 -18 -7 -38 -15 -45 -9 -8 -15 -30 -15 -60 0 -30 -6 -52 -15 -60
-13 -10 -15 -53 -15 -270 0 -217 2 -260 15 -270 8 -7 15 -27 15 -45 0 -18 7
-38 15 -45 8 -7 15 -27 15 -45 0 -18 7 -38 15 -45 8 -7 15 -20 15 -30 0 -10 7
-23 15 -30 8 -7 15 -20 15 -30 0 -10 7 -23 15 -30 8 -7 15 -20 15 -29 0 -10
14 -30 30 -46 17 -16 30 -36 30 -45 0 -20 190 -210 211 -210 8 0 28 -13 44
-30 16 -16 36 -30 45 -30 9 0 29 -13 45 -30 16 -16 36 -30 46 -30 9 0 22 -7
29 -15 7 -8 20 -15 30 -15 10 0 23 -7 30 -15 7 -8 20 -15 30 -15 10 0 23 -7
30 -15 7 -8 20 -15 30 -15 10 0 23 -7 30 -15 7 -8 20 -15 29 -15 10 0 30 -13
46 -30 16 -16 36 -30 46 -30 9 0 22 -7 29 -15 7 -8 20 -15 30 -15 10 0 23 -7
30 -15 7 -8 20 -15 30 -15 10 0 23 -7 30 -15 7 -8 20 -15 30 -15 10 0 23 -7
30 -15 7 -8 20 -15 30 -15 10 0 23 -7 30 -15 7 -8 20 -15 29 -15 10 0 30 -13
46 -30 16 -16 36 -30 46 -30 9 0 22 -7 29 -15 11 -13 139 -15 1069 -13 l1056
3 0 25 c0 18 -6 26 -22 28 -12 2 -27 10 -33 18 -7 8 -20 14 -30 14 -10 0 -23
7 -30 15 -7 8 -20 15 -30 15 -10 0 -23 7 -30 15 -7 8 -20 15 -29 15 -10 0 -30
14 -46 30 -16 17 -36 30 -46 30 -9 0 -22 7 -29 15 -7 8 -20 15 -30 15 -10 0
-23 7 -30 15 -7 8 -20 15 -30 15 -10 0 -23 7 -30 15 -7 8 -20 15 -30 15 -10 0
-23 7 -30 15 -7 8 -20 15 -30 15 -10 0 -23 7 -30 15 -7 8 -20 15 -29 15 -10 0
-30 14 -46 30 -16 17 -36 30 -46 30 -9 0 -22 7 -29 15 -7 8 -20 15 -30 15 -10
0 -23 7 -30 15 -7 8 -20 15 -30 15 -10 0 -23 7 -30 15 -7 8 -20 15 -30 15 -10
0 -23 7 -30 15 -7 8 -20 15 -29 15 -10 0 -30 14 -46 30 -16 17 -36 30 -46 30
-9 0 -22 7 -29 15 -7 8 -20 15 -30 15 -10 0 -23 7 -30 15 -7 8 -20 15 -30 15
-10 0 -23 7 -30 15 -7 8 -20 15 -30 15 -10 0 -23 7 -30 15 -7 8 -20 15 -30 15
-10 0 -23 7 -30 15 -7 8 -20 15 -29 15 -10 0 -30 14 -46 30 -16 17 -36 30 -46
30 -9 0 -22 7 -29 15 -7 8 -20 15 -30 15 -10 0 -23 7 -30 15 -7 8 -20 15 -30
15 -10 0 -23 7 -30 15 -7 8 -20 15 -30 15 -10 0 -23 7 -30 15 -7 8 -20 15 -30
15 -10 0 -23 7 -30 15 -7 8 -20 15 -29 15 -10 0 -30 14 -46 30 -16 17 -36 30
-46 30 -9 0 -22 7 -29 15 -7 8 -20 15 -30 15 -10 0 -23 7 -30 15 -7 8 -20 15
-30 15 -10 0 -23 7 -30 15 -7 8 -20 15 -30 15 -10 0 -23 7 -30 15 -7 8 -20 15
-30 15 -10 0 -23 7 -30 15 -7 8 -20 15 -29 15 -10 0 -30 14 -46 30 -16 17 -36
30 -46 30 -9 0 -22 7 -29 15 -7 8 -20 15 -30 15 -10 0 -23 7 -30 15 -7 8 -20
15 -30 15 -10 0 -23 7 -30 15 -7 8 -20 15 -29 15 -30 0 -91 72 -91 107 0 17
-7 36 -15 43 -14 12 -14 15 0 30 9 10 15 35 15 61 0 41 5 49 53 97 48 47 57
52 99 52 28 0 50 6 58 15 11 13 255 15 2085 15 1830 0 2074 -2 2085 -15 9 -11
35 -15 105 -15 70 0 96 -4 105 -15 7 -8 27 -15 45 -15 18 0 38 -7 45 -15 7 -8
20 -15 30 -15 10 0 23 -7 30 -15 7 -8 20 -15 29 -15 10 0 30 -13 46 -30 16
-16 36 -30 45 -30 20 0 180 -160 180 -181 0 -8 14 -28 30 -44 17 -16 30 -36
30 -46 0 -9 7 -22 15 -29 8 -7 15 -20 15 -30 0 -10 7 -23 15 -30 8 -7 15 -27
15 -45 0 -18 7 -38 15 -45 11 -9 15 -35 15 -105 0 -70 4 -96 15 -105 13 -10
15 -52 15 -255 0 -203 -2 -245 -15 -255 -11 -9 -15 -35 -15 -105 0 -70 -4 -96
-15 -105 -8 -7 -15 -27 -15 -45 0 -18 -7 -38 -15 -45 -8 -7 -15 -20 -15 -30 0
-10 -7 -23 -15 -30 -8 -7 -15 -20 -15 -30 0 -10 -7 -23 -15 -30 -8 -7 -15 -20
-15 -29 0 -21 -250 -271 -271 -271 -8 0 -28 -13 -44 -30 -20 -21 -38 -30 -61
-30 -17 0 -37 -7 -44 -15 -7 -8 -20 -15 -30 -15 -10 0 -23 -7 -30 -15 -11 -13
-272 -15 -2235 -15 -1963 0 -2224 -2 -2235 -15 -10 -12 -38 -15 -135 -15 -97
0 -125 -3 -135 -15 -7 -8 -27 -15 -45 -15 -18 0 -38 -7 -45 -15 -7 -8 -27 -15
-45 -15 -18 0 -38 -7 -45 -15 -7 -8 -20 -15 -30 -15 -10 0 -23 -7 -30 -15 -7
-8 -20 -15 -30 -15 -10 0 -23 -7 -30 -15 -7 -8 -20 -15 -29 -15 -9 0 -37 -20
-61 -45 -24 -25 -51 -45 -60 -45 -20 0 -150 -131 -150 -151 0 -8 -20 -35 -45
-59 -25 -24 -45 -51 -45 -60 0 -9 -13 -29 -30 -45 -16 -16 -30 -36 -30 -46 0
-9 -7 -22 -15 -29 -8 -7 -15 -20 -15 -30 0 -10 -7 -23 -15 -30 -8 -7 -15 -27
-15 -45 0 -18 -7 -38 -15 -45 -8 -7 -15 -27 -15 -45 0 -18 -7 -38 -15 -45 -13
-11 -15 -117 -15 -840 0 -723 2 -829 15 -840 8 -7 15 -20 15 -30 0 -10 7 -23
15 -30 8 -7 15 -20 15 -29 0 -21 130 -151 152 -151 8 0 21 -7 28 -15 7 -8 20
-15 30 -15 10 0 23 -7 30 -15 7 -8 28 -15 47 -15 21 0 36 -6 39 -15 5 -12 27
-15 109 -15 82 0 104 3 109 15 3 9 18 15 39 15 19 0 40 7 47 15 7 8 20 15 30
15 10 0 23 7 30 15 7 8 20 15 29 15 21 0 151 130 151 152 0 8 7 21 15 28 8 7
15 20 15 30 0 10 7 23 15 30 13 11 15 100 15 690 0 590 2 679 15 690 8 7 15
27 15 44 0 44 63 106 107 106 17 0 36 7 43 15 11 13 277 15 2280 15 2003 0
2269 2 2280 15 9 10 32 15 75 15 43 0 66 5 75 15 7 8 27 15 45 15 18 0 38 7
45 15 7 8 27 15 45 15 18 0 38 7 45 15 7 8 20 15 30 15 10 0 23 7 30 15 7 8
20 15 30 15 10 0 23 7 30 15 7 8 20 15 30 15 10 0 23 7 30 15 7 8 20 15 30 15
10 0 23 7 30 15 7 8 20 15 29 15 10 0 30 14 46 30 16 17 36 30 45 30 8 0 42
27 75 60 33 33 66 60 75 60 20 0 210 190 210 210 0 9 27 42 60 75 33 33 60 67
60 75 0 9 14 29 30 45 17 16 30 36 30 45 0 9 14 29 30 45 17 16 30 36 30 46 0
9 7 22 15 29 8 7 15 20 15 30 0 10 7 23 15 30 8 7 15 20 15 30 0 10 7 23 15
30 8 7 15 27 15 45 0 18 7 38 15 45 8 7 15 27 15 45 0 18 7 38 15 45 8 7 15
27 15 45 0 18 7 38 15 45 10 9 15 32 15 75 0 43 5 66 15 75 13 11 15 88 15
585 0 497 -2 574 -15 585 -10 9 -15 32 -15 75 0 43 -5 66 -15 75 -9 8 -15 30
-15 60 0 30 -6 52 -15 60 -8 7 -15 20 -15 30 0 10 -7 23 -15 30 -8 7 -15 27
-15 45 0 18 -7 38 -15 45 -8 7 -15 20 -15 30 0 10 -7 23 -15 30 -8 7 -15 20
-15 30 0 10 -7 23 -15 30 -8 7 -15 20 -15 29 0 10 -13 30 -30 46 -16 16 -30
36 -30 45 0 9 -13 29 -30 45 -16 16 -30 36 -30 45 0 8 -34 49 -75 90 -41 41
-75 82 -75 90 0 20 -71 90 -91 90 -8 0 -48 34 -89 75 -41 41 -82 75 -90 75 -9
0 -29 14 -45 30 -16 17 -36 30 -45 30 -9 0 -29 14 -45 30 -16 17 -36 30 -46
30 -9 0 -22 7 -29 15 -7 8 -20 15 -30 15 -10 0 -23 7 -30 15 -7 8 -20 15 -30
15 -10 0 -23 7 -30 15 -7 8 -27 15 -45 15 -18 0 -38 7 -45 15 -7 8 -20 15 -30
15 -10 0 -23 7 -30 15 -8 9 -30 15 -60 15 -30 0 -52 6 -60 15 -8 9 -30 15 -60
15 -30 0 -52 6 -60 15 -11 13 -290 15 -2400 15 -2110 0 -2389 -2 -2400 -15z"/>
<path d="M33540 24015 c-8 -9 -30 -15 -60 -15 -30 0 -52 -6 -60 -15 -8 -9 -30
-15 -60 -15 -30 0 -52 -6 -60 -15 -7 -8 -27 -15 -45 -15 -18 0 -38 -7 -45 -15
-7 -8 -20 -15 -30 -15 -10 0 -23 -7 -30 -15 -7 -8 -20 -15 -30 -15 -10 0 -23
-7 -30 -15 -7 -8 -20 -15 -30 -15 -10 0 -23 -7 -30 -15 -7 -8 -20 -15 -29 -15
-10 0 -30 -13 -46 -30 -16 -16 -36 -30 -45 -30 -9 0 -29 -13 -45 -30 -16 -16
-36 -30 -45 -30 -8 0 -42 -27 -75 -60 -33 -33 -66 -60 -75 -60 -20 0 -150
-131 -150 -151 0 -8 -27 -41 -60 -74 -33 -33 -60 -67 -60 -75 0 -9 -13 -29
-30 -45 -16 -16 -30 -36 -30 -45 0 -9 -13 -29 -30 -45 -16 -16 -30 -36 -30
-46 0 -9 -7 -22 -15 -29 -8 -7 -15 -20 -15 -30 0 -10 -7 -23 -15 -30 -8 -7
-15 -20 -15 -30 0 -10 -7 -23 -15 -30 -8 -7 -15 -20 -15 -30 0 -10 -7 -23 -15
-30 -8 -7 -15 -27 -15 -45 0 -18 -7 -38 -15 -45 -9 -8 -15 -30 -15 -60 0 -30
-6 -52 -15 -60 -9 -8 -15 -30 -15 -60 0 -30 -6 -52 -15 -60 -13 -11 -15 -93
-15 -630 0 -537 2 -619 15 -630 9 -8 15 -30 15 -60 0 -30 6 -52 15 -60 9 -8
15 -30 15 -60 0 -30 6 -52 15 -60 8 -7 15 -27 15 -45 0 -18 7 -38 15 -45 8 -7
15 -20 15 -30 0 -10 7 -23 15 -30 8 -7 15 -20 15 -30 0 -10 7 -23 15 -30 8 -7
15 -20 15 -30 0 -10 7 -23 15 -30 8 -7 15 -20 15 -30 0 -10 7 -23 15 -30 8 -7
15 -20 15 -29 0 -9 20 -37 45 -61 25 -24 45 -51 45 -60 0 -9 27 -42 60 -75 33
-33 60 -66 60 -75 0 -20 131 -150 151 -150 8 0 41 -27 74 -60 33 -33 66 -60
75 -60 9 0 36 -20 60 -45 24 -25 52 -45 61 -45 9 0 22 -7 29 -15 7 -8 20 -15
30 -15 10 0 23 -7 30 -15 7 -8 20 -15 30 -15 10 0 23 -7 30 -15 7 -8 20 -15
30 -15 10 0 23 -7 30 -15 7 -8 20 -15 30 -15 10 0 23 -7 30 -15 7 -8 27 -15
45 -15 18 0 38 -7 45 -15 8 -9 30 -15 60 -15 30 0 52 -6 60 -15 8 -9 30 -15
60 -15 30 0 52 -6 60 -15 10 -12 43 -15 180 -15 137 0 170 -3 180 -15 11 -13
300 -15 2490 -15 2190 0 2479 2 2490 15 9 11 33 15 90 15 57 0 81 4 90 15 7 8
20 15 29 15 10 0 30 14 46 30 16 17 36 30 45 30 20 0 90 71 90 91 0 8 14 28
30 44 17 16 30 37 30 47 0 10 7 21 15 24 13 5 15 37 15 199 0 162 -2 194 -15
199 -8 3 -15 14 -15 24 0 10 -13 31 -30 47 -16 16 -30 36 -30 45 0 20 -71 90
-91 90 -8 0 -28 14 -44 30 -16 17 -36 30 -46 30 -9 0 -22 7 -29 15 -11 13
-312 15 -2595 15 -2283 0 -2584 2 -2595 15 -9 11 -35 15 -105 15 -70 0 -96 4
-105 15 -7 8 -20 15 -30 15 -10 0 -23 7 -30 15 -7 8 -27 15 -44 15 -23 0 -41
9 -61 30 -16 17 -36 30 -45 30 -20 0 -240 220 -240 241 0 8 -13 28 -30 44 -21
20 -30 38 -30 61 0 17 -7 37 -15 44 -8 7 -15 27 -15 45 0 18 -7 38 -15 45 -11
9 -15 33 -15 90 0 57 -4 81 -15 90 -13 11 -15 55 -15 285 0 230 2 274 15 285
11 9 15 35 15 105 0 70 4 96 15 105 8 7 15 27 15 45 0 18 7 38 15 45 8 7 15
20 15 30 0 10 7 23 15 30 8 7 15 20 15 30 0 10 7 23 15 30 8 7 15 20 15 29 0
21 220 241 241 241 9 0 22 7 29 15 7 8 20 15 30 15 10 0 23 7 30 15 7 8 20 15
30 15 10 0 23 7 30 15 7 8 27 15 45 15 18 0 38 7 45 15 9 11 35 15 105 15 70
0 96 4 105 15 11 13 258 15 2115 15 1857 0 2104 -2 2115 -15 7 -8 27 -15 44
-15 26 0 44 -13 99 -68 54 -54 67 -74 67 -99 0 -17 7 -36 15 -43 8 -7 15 -20
15 -30 0 -10 -7 -23 -15 -30 -8 -7 -15 -20 -15 -29 0 -21 -40 -61 -61 -61 -9
0 -28 -13 -44 -30 -16 -16 -36 -30 -46 -30 -9 0 -22 -7 -29 -15 -7 -8 -20 -15
-30 -15 -10 0 -23 -7 -30 -15 -7 -8 -20 -15 -30 -15 -10 0 -23 -7 -30 -15 -7
-8 -20 -15 -30 -15 -10 0 -23 -7 -30 -15 -7 -8 -20 -15 -30 -15 -10 0 -23 -7
-30 -15 -7 -8 -20 -15 -29 -15 -10 0 -30 -13 -46 -30 -16 -16 -36 -30 -46 -30
-9 0 -22 -7 -29 -15 -7 -8 -20 -15 -30 -15 -10 0 -23 -7 -30 -15 -7 -8 -20
-15 -30 -15 -10 0 -23 -7 -30 -15 -7 -8 -20 -15 -30 -15 -10 0 -23 -7 -30 -15
-7 -8 -20 -15 -30 -15 -10 0 -23 -7 -30 -15 -7 -8 -20 -15 -30 -15 -10 0 -23
-7 -30 -15 -7 -8 -20 -15 -29 -15 -10 0 -30 -13 -46 -30 -16 -16 -36 -30 -46
-30 -9 0 -22 -7 -29 -15 -7 -8 -20 -15 -30 -15 -10 0 -23 -7 -30 -15 -7 -8
-20 -15 -30 -15 -10 0 -23 -7 -30 -15 -7 -8 -20 -15 -30 -15 -10 0 -23 -7 -30
-15 -7 -8 -20 -15 -30 -15 -10 0 -23 -7 -30 -15 -7 -8 -20 -15 -30 -15 -10 0
-23 -7 -30 -15 -7 -8 -20 -15 -30 -15 -10 0 -23 -7 -30 -15 -7 -8 -20 -15 -29
-15 -10 0 -30 -13 -46 -30 -16 -16 -36 -30 -46 -30 -9 0 -22 -7 -29 -15 -7 -8
-20 -15 -30 -15 -10 0 -23 -7 -30 -15 -7 -8 -20 -15 -30 -15 -10 0 -23 -7 -30
-15 -7 -8 -20 -15 -30 -15 -10 0 -23 -7 -30 -15 -7 -8 -20 -15 -30 -15 -10 0
-23 -7 -30 -15 -7 -8 -20 -15 -30 -15 -10 0 -23 -7 -30 -15 -7 -8 -20 -15 -30
-15 -10 0 -23 -7 -30 -15 -7 -8 -20 -15 -30 -15 -10 0 -23 -7 -30 -15 -7 -8
-20 -15 -30 -15 -10 0 -23 -7 -30 -15 -7 -8 -20 -15 -29 -15 -10 0 -30 -13
-46 -30 -16 -16 -36 -30 -46 -30 -9 0 -22 -7 -29 -15 -7 -8 -20 -15 -30 -15
-10 0 -23 -7 -30 -15 -7 -8 -20 -15 -30 -15 -10 0 -23 -7 -30 -15 -7 -8 -20
-15 -30 -15 -10 0 -23 -7 -30 -15 -7 -8 -20 -15 -30 -15 -10 0 -23 -7 -30 -15
-7 -8 -20 -15 -30 -15 -10 0 -23 -7 -30 -15 -7 -8 -20 -15 -29 -15 -20 0 -64
-43 -54 -53 3 -4 487 -7 1073 -7 937 0 1069 2 1080 15 7 8 20 15 30 15 10 0
23 7 30 15 7 8 20 15 30 15 10 0 23 7 30 15 7 8 20 15 30 15 10 0 23 7 30 15
7 8 20 15 30 15 10 0 23 7 30 15 7 8 20 15 30 15 10 0 23 7 30 15 7 8 20 15
30 15 10 0 23 7 30 15 7 8 20 15 30 15 10 0 23 7 30 15 7 8 20 15 29 15 10 0
30 14 46 30 16 17 36 30 46 30 9 0 22 7 29 15 7 8 20 15 30 15 10 0 23 7 30
15 7 8 20 15 30 15 10 0 23 7 30 15 7 8 20 15 30 15 10 0 23 7 30 15 7 8 20
15 29 15 10 0 30 14 46 30 16 17 36 30 45 30 9 0 29 14 45 30 16 17 36 30 45
30 20 0 270 251 270 271 0 9 7 22 15 29 8 7 15 20 15 29 0 10 14 30 30 46 21
20 30 38 30 61 0 17 7 37 15 44 8 7 15 20 15 30 0 10 7 23 15 30 10 8 15 30
15 62 0 34 4 50 15 54 13 5 15 45 15 274 0 229 -2 269 -15 274 -9 3 -15 18
-15 39 0 19 -7 40 -15 47 -8 7 -15 27 -15 45 0 18 -7 38 -15 45 -8 7 -15 27
-15 45 0 18 -7 38 -15 45 -8 7 -15 20 -15 30 0 10 -7 23 -15 30 -8 7 -15 20
-15 29 0 10 -13 30 -30 46 -16 16 -30 36 -30 45 0 9 -20 36 -45 60 -25 24 -45
51 -45 60 0 20 -131 150 -151 150 -8 0 -35 20 -59 45 -24 25 -51 45 -60 45 -9
0 -29 14 -45 30 -16 17 -36 30 -46 30 -9 0 -22 7 -29 15 -7 8 -20 15 -30 15
-10 0 -23 7 -30 15 -7 8 -27 15 -45 15 -18 0 -38 7 -45 15 -8 9 -30 15 -60 15
-30 0 -52 6 -60 15 -11 13 -293 15 -2430 15 -2137 0 -2419 -2 -2430 -15z"/>
</g>
</svg>
